<?xml version="1.0" standalone="no"?><!DOCTYPE svg PUBLIC "-//W3C//DTD SVG 1.1//EN" "http://www.w3.org/Graphics/SVG/1.1/DTD/svg11.dtd"><svg t="1599486048405" class="icon" viewBox="0 0 1024 1024" version="1.1" xmlns="http://www.w3.org/2000/svg" p-id="3308" xmlns:xlink="http://www.w3.org/1999/xlink" width="200" height="200"><defs><style type="text/css">@font-face { font-weight: 400; font-style: normal; font-family: Inter-Loom; src: url("https://cdn.loom.com/assets/fonts/inter/Inter-UI-Regular.woff2") format("woff2"); }
@font-face { font-weight: 400; font-style: italic; font-family: Inter-Loom; src: url("https://cdn.loom.com/assets/fonts/inter/Inter-UI-Italic.woff2") format("woff2"); }
@font-face { font-weight: 500; font-style: normal; font-family: Inter-Loom; src: url("https://cdn.loom.com/assets/fonts/inter/Inter-UI-Medium.woff2") format("woff2"); }
@font-face { font-weight: 500; font-style: italic; font-family: Inter-Loom; src: url("https://cdn.loom.com/assets/fonts/inter/Inter-UI-MediumItalic.woff2") format("woff2"); }
@font-face { font-weight: 700; font-style: normal; font-family: Inter-Loom; src: url("https://cdn.loom.com/assets/fonts/inter/Inter-UI-Bold.woff2") format("woff2"); }
@font-face { font-weight: 700; font-style: italic; font-family: Inter-Loom; src: url("https://cdn.loom.com/assets/fonts/inter/Inter-UI-BoldItalic.woff2") format("woff2"); }
@font-face { font-weight: 900; font-style: normal; font-family: Inter-Loom; src: url("https://cdn.loom.com/assets/fonts/inter/Inter-UI-Black.woff2") format("woff2"); }
@font-face { font-weight: 900; font-style: italic; font-family: Inter-Loom; src: url("https://cdn.loom.com/assets/fonts/inter/Inter-UI-BlackItalic.woff2") format("woff2"); }
</style></defs><path d="M521.541818 961.861818c-251.298909 0-455.726545-204.427636-455.726545-455.726545 0-251.275636 204.427636-455.726545 455.726545-455.726546 251.275636 0 455.703273 204.427636 455.703273 455.726546 0.023273 251.298909-204.404364 455.726545-455.703273 455.726545z m0-870.027636c-228.468364 0-414.324364 185.856-414.324363 414.324363 0 228.445091 185.879273 414.324364 414.324363 414.324364s414.324364-185.879273 414.324364-414.324364c0-228.468364-185.856-414.324364-414.324364-414.324363z" p-id="3309"></path><path d="M674.513455 291.258182l-111.872 188.904727h97.792v33.629091H540.625455v53.178182h119.808v33.605818H540.625455v111.266909h-44.008728v-111.266909h-119.202909v-33.605818h119.202909v-53.178182h-119.202909v-33.629091h97.186909l-113.082182-188.904727h48.919273l108.8 185.227636 107.589818-185.227636h47.685819z" p-id="3310"></path></svg>